<svg width="20" height="19" viewBox="0 0 20 19" fill="none" xmlns="http://www.w3.org/2000/svg">
<path d="M10 11V8M10 8V5M10 8H7M10 8H13M5.12357 15.7012L3.59961 16.9203C2.76744 17.5861 2.35115 17.9191 2.00098 17.9195C1.69644 17.9198 1.40845 17.7813 1.21846 17.5433C1 17.2696 1 16.7369 1 15.6712V4.2002C1 3.08009 1 2.51962 1.21799 2.0918C1.40973 1.71547 1.71547 1.40973 2.0918 1.21799C2.51962 1 3.08009 1 4.2002 1H15.8002C16.9203 1 17.4801 1 17.9079 1.21799C18.2842 1.40973 18.5905 1.71547 18.7822 2.0918C19 2.5192 19 3.07899 19 4.19691V11.8036C19 12.9215 19 13.4805 18.7822 13.9079C18.5905 14.2842 18.2843 14.5905 17.908 14.7822C17.4806 15 16.9215 15 15.8036 15H7.12256C6.70652 15 6.49829 15 6.29932 15.0408C6.12279 15.0771 5.95216 15.1368 5.79168 15.2188C5.61149 15.3108 5.44964 15.4403 5.12722 15.6982L5.12357 15.7012Z" stroke="#7F7F7F" stroke-width="2" stroke-linecap="round" stroke-linejoin="round"/>
</svg>
