<svg width="13" height="17" viewBox="0 0 13 17" fill="none" xmlns="http://www.w3.org/2000/svg">
<path d="M4.25901 6.99981L3.58948 6.9978C2.68313 6.9978 2.22962 6.9978 1.88344 7.17946C1.57893 7.33924 1.33154 7.59402 1.17639 7.90762C1 8.26414 1 8.73119 1 9.6646L1.0002 13.3313C1.0002 14.2647 1.0002 14.7312 1.17658 15.0877C1.33174 15.4013 1.57913 15.6565 1.88364 15.8163C2.22948 15.9978 2.68246 15.9978 3.58704 15.9978L9.41338 16C10.318 16 10.7703 16 11.1161 15.8185C11.4206 15.6587 11.6688 15.4035 11.824 15.0899C12.0002 14.7337 12.0002 14.2679 12.0002 13.3363L12 9.66406C12 8.73247 12 8.26598 11.8238 7.90982C11.6686 7.59622 11.4204 7.34144 11.1159 7.18165C10.7697 7 10.3172 7 9.41083 7L8.74054 6.99981M4.25901 6.99981H8.74054M4.25901 6.99981C4.15589 6.99981 4.07253 6.91371 4.07253 6.8075L4.07272 3.49997C4.07272 2.11927 5.15955 1 6.50021 1C7.84088 1 8.92771 2.11927 8.92771 3.49997L8.92751 6.8075C8.92751 6.91371 8.84367 6.99981 8.74054 6.99981" stroke="#808080" stroke-width="2" stroke-linecap="round" stroke-linejoin="round"/>
</svg>
